<?xml version="1.0" encoding="UTF-8"?>
<!DOCTYPE svg PUBLIC "-//W3C//DTD SVG 1.1//EN" "http://www.w3.org/Graphics/SVG/1.1/DTD/svg11.dtd">
<svg xmlns="http://www.w3.org/2000/svg" version="1.1" width="832px" height="832px" style="shape-rendering:geometricPrecision; text-rendering:geometricPrecision; image-rendering:optimizeQuality; fill-rule:evenodd; clip-rule:evenodd" xmlns:xlink="http://www.w3.org/1999/xlink">
<g><path style="opacity:0.997" fill="#fefffe" d="M 386.5,-0.5 C 405.833,-0.5 425.167,-0.5 444.5,-0.5C 570.773,11.2063 672.606,66.873 750,166.5C 797.641,232.139 824.807,305.472 831.5,386.5C 831.5,405.833 831.5,425.167 831.5,444.5C 819.794,570.773 764.127,672.606 664.5,750C 598.861,797.641 525.528,824.807 444.5,831.5C 425.167,831.5 405.833,831.5 386.5,831.5C 260.227,819.794 158.394,764.127 81,664.5C 33.3592,598.861 6.19253,525.528 -0.5,444.5C -0.5,425.167 -0.5,405.833 -0.5,386.5C 11.2063,260.227 66.873,158.394 166.5,81C 232.139,33.3592 305.472,6.19253 386.5,-0.5 Z"/></g>
<g><path style="opacity:1" fill="#91c3e9" d="M 380.5,208.5 C 403.833,208.5 427.167,208.5 450.5,208.5C 450.5,265.833 450.5,323.167 450.5,380.5C 508.167,380.5 565.833,380.5 623.5,380.5C 623.5,403.833 623.5,427.167 623.5,450.5C 565.833,450.5 508.167,450.5 450.5,450.5C 450.5,508.167 450.5,565.833 450.5,623.5C 427.167,623.5 403.833,623.5 380.5,623.5C 380.5,565.833 380.5,508.167 380.5,450.5C 323.167,450.5 265.833,450.5 208.5,450.5C 208.5,427.167 208.5,403.833 208.5,380.5C 265.833,380.5 323.167,380.5 380.5,380.5C 380.5,323.167 380.5,265.833 380.5,208.5 Z"/></g>
<g><path style="opacity:1" fill="#e9f2f9" d="M 380.5,208.5 C 380.5,265.833 380.5,323.167 380.5,380.5C 323.167,380.5 265.833,380.5 208.5,380.5C 265.331,379.501 322.331,379.168 379.5,379.5C 379.168,322.331 379.501,265.331 380.5,208.5 Z"/></g>
<g><path style="opacity:1" fill="#e9f2f9" d="M 450.5,208.5 C 451.499,265.331 451.832,322.331 451.5,379.5C 509.002,379.168 566.336,379.501 623.5,380.5C 565.833,380.5 508.167,380.5 450.5,380.5C 450.5,323.167 450.5,265.833 450.5,208.5 Z"/></g>
<g><path style="opacity:1" fill="#e9f2fa" d="M 208.5,450.5 C 265.833,450.5 323.167,450.5 380.5,450.5C 380.5,508.167 380.5,565.833 380.5,623.5C 379.501,566.336 379.168,509.002 379.5,451.5C 322.331,451.832 265.331,451.499 208.5,450.5 Z"/></g>
<g><path style="opacity:1" fill="#e9f2fa" d="M 623.5,450.5 C 566.336,451.499 509.002,451.832 451.5,451.5C 451.832,509.002 451.499,566.336 450.5,623.5C 450.5,565.833 450.5,508.167 450.5,450.5C 508.167,450.5 565.833,450.5 623.5,450.5 Z"/></g>
</svg>
